<?xml version="1.0" encoding="UTF-8"?>
<svg id="Capa_1" data-name="Capa 1" xmlns="http://www.w3.org/2000/svg" viewBox="0 0 987 734.39">
  <defs>
    <style>
      .cls-1 {
        fill: #090221;
      }

      .cls-1, .cls-2, .cls-3 {
        stroke-width: 0px;
      }

      .cls-2 {
        fill: #f4e1ee;
      }

      .cls-3 {
        fill: #0073c1;
      }
    </style>
  </defs>
  <path class="cls-2" d="m593,38.63h266.5c4.14,0,7.5,3.36,7.5,7.5v568.5h-370V134.63c0-52.98,43.02-96,96-96Z"/>
  <path class="cls-2" d="m116,32.63h287.5c45.53,0,82.5,36.97,82.5,82.5v493.5H116V32.63h0Z"/>
  <g>
    <path class="cls-3" d="m953.52,712.07c-15.96,14.54-34.93,22.36-56.32,22.32-267.67-.5-535.33-1.21-803-1.99C40.84,732.24,0,692.09,0,639.13c.02-150.59.36-301.18.87-451.77.16-46.44,25.61-80.79,68.32-93.79,3.43-1.04,7.15-2.34,10.58-1.99,10.87,1.11,13.71-3.27,13.09-13.87-1.02-17.37-.4-34.84-.24-52.26C92.77,8.72,101.54.19,118.36.22c22.35.05,44.7.22,67.05.34,5.4,11.19,16.17,17.56,23.97,26.6,5.47,6.34,12.68,11.28,15.52,19.69-24.98.16-49.97.83-74.93.2-9.12-.23-10.47,2.66-10.46,10.91.22,163.46.2,326.91-.1,490.37-.02,8.46,1.7,10.79,10.55,10.75,100.97-.38,201.95-.26,302.93-.27q16.73,0,16.74-16.9c.1-67.41.22-134.82.34-202.23,2.98.46,5.4,1.77,7.53,4.02,7.77,8.24,15.47,16.57,23.66,24.38,4.58,4.37,8.57,9.91,15.53,11.07.12,56.9.38,113.8.16,170.69-.03,7.31,1.63,9.19,9.08,9.15,62.17-.35,124.35-.25,186.53-.2,31.57.02,63.14.22,94.71.33-.78,5.55,3.54,8.16,6.7,11.32,44.12,44.18,88.3,88.31,132.42,132.5,2.74,2.75,6.19,5.01,7.25,9.13Z"/>
    <path class="cls-1" d="m224.9,46.85c-2.84-8.41-10.05-13.35-15.52-19.69-7.8-9.04-18.57-15.4-23.97-26.6,64.46-.1,128.92-.31,193.38-.27,33.04.02,63.32,8.71,89.17,30.15,7.87,6.53,14.83,13.98,20.96,22.14,2.98,3.97,4.83,5.11,8.54.38C526.95,15.24,566.16-.41,613.6,0c84.85.75,169.71.19,254.57.19,17.23,0,26.08,8.6,26.21,25.87.15,20.06.22,40.13-.1,60.18-.08,5.2,1.53,6.53,6.54,6.86,49.12,3.23,84.84,41.52,86.15,92.85.3,11.5-2.37,22.67-2.11,34.07,3.22,138.96.91,277.93,1.01,416.89.02,29.9-9.48,55.31-32.36,75.16-1.06-4.12-4.51-6.38-7.25-9.12-44.12-44.19-88.29-88.32-132.42-132.5-3.16-3.16-7.48-5.77-6.7-11.32,10.52-.1,21.07-.73,31.55-.1,7.4.44,9.16-1.7,9.15-9.12-.27-164.45-.29-328.89-.14-493.34,0-6.92-1.02-9.48-8.95-9.45-77.29.35-154.59.34-231.89.08-17.98-.06-34.17,4.72-49.68,13.51-17.02,9.64-26.91,25.41-35.5,41.66-5.88,11.12-4.69,24.46-4.71,37.04-.09,79.91-.21,159.83-.31,239.74-6.96-1.16-10.95-6.7-15.53-11.07-8.18-7.82-15.89-16.14-23.66-24.38-2.13-2.26-4.55-3.56-7.53-4.02-.1-5.59-.27-11.17-.27-16.76-.03-62.17.07-124.34-.08-186.51-.09-36.96-16.69-63.96-49.69-80.82-14.21-7.26-29.46-8.38-45.04-8.38-49.99,0-99.98-.22-149.97-.36Z"/>
    <path class="cls-1" d="m681.41,326.14c-23.31,0-46.62.21-69.92-.09-11.45-.15-19.02-6.69-21.96-17.62-2.56-9.5,1.75-20.12,10.21-25.58,4.69-3.02,9.96-3.24,15.17-3.25,44.64-.11,89.29-.2,133.93-.03,16.9.06,26.79,9.1,26.71,23.52-.08,14.23-10.34,23.05-27.18,23.11-22.32.08-44.64.02-66.97.02v-.09Z"/>
    <path class="cls-1" d="m681.75,146.62c22.98,0,45.97-.18,68.95.06,11.64.12,20.78,6.4,23.71,15.92,2.96,9.62.8,18.13-6.69,25.12-4.87,4.54-10.71,5.98-17.19,5.97-45.64-.05-91.27.05-136.91-.09-14.58-.04-25.19-10.23-25.1-23.41.1-13.19,10.58-23.3,25.27-23.49,22.65-.29,45.31-.08,67.96-.09Z"/>
    <path class="cls-1" d="m637.51,412.39c38.45-.14,76.91-.65,115.35-.24,13.9.15,22.9,10.61,22.67,23.59-.23,12.88-9.83,22.47-23.72,22.59-24.98.2-49.96-.15-74.95-.27-.06-4.13-3.36-6.13-5.81-8.61-9.36-9.48-18.85-18.83-28.22-28.31-2.43-2.46-5.85-4.44-5.32-8.75Z"/>
    <path class="cls-3" d="m637.51,412.39c-.53,4.31,2.89,6.28,5.32,8.75,9.37,9.48,18.85,18.83,28.22,28.31,2.45,2.48,5.75,4.48,5.81,8.61-21.93.13-43.86.58-65.78.25-12.81-.19-22.38-10.35-22.67-22.63-.28-11.8,8.36-21.96,20.76-23.44,9.4-1.12,18.9-1.21,28.34.15Z"/>
    <path class="cls-3" d="m303.83,326.18c-23.32,0-46.64.22-69.95-.09-11.53-.16-19.91-7.62-22.36-18.6-2.07-9.28,3.04-20.09,11.61-25.15,4.19-2.48,8.8-2.76,13.32-2.77,45.32-.13,90.65-.08,135.97-.12,11.24-.01,20.01,4.25,24.09,15.08,3.54,9.37,1.68,18.06-5.71,25.29-5.32,5.21-11.86,6.51-18.98,6.49-22.66-.07-45.32-.02-67.99-.02,0-.03,0-.06,0-.09Z"/>
    <path class="cls-3" d="m304.13,458.48c-22.36-.01-44.72.09-67.08-.04-15.29-.09-25.48-9.08-25.95-22.47-.48-13.63,9.93-24.02,25.47-24.12,45.37-.27,90.75-.3,136.13-.02,15.56.1,25.93,10.5,25.48,24.12-.45,13.31-10.73,22.41-25.97,22.51-22.69.15-45.38.04-68.06.03Z"/>
    <path class="cls-1" d="m267.9,147.07c35.1-.13,70.2-.48,105.29-.28,14.75.08,25.01,10.43,24.9,23.7-.11,13.24-10.57,23.02-25.31,23.08-22.3.1-44.61-.14-66.92-.24-.24-4.06-3.52-6.03-5.97-8.51-8.87-8.99-17.73-17.99-26.82-26.76-3.23-3.12-5.17-6.52-5.18-11Z"/>
    <path class="cls-3" d="m267.9,147.07c0,4.48,1.95,7.88,5.18,11,9.08,8.77,17.95,17.76,26.82,26.76,2.44,2.48,5.73,4.45,5.97,8.51-23.66.12-47.32.43-70.98.27-13.45-.09-23.4-9.91-23.82-22.59-.42-12.61,8.99-23.38,22.39-24.15,11.44-.65,22.96.09,34.44.21Z"/>
  </g>
</svg>